#!OML:ASF X:\für Bonn\!DataBase\2005_08_10_Bjorn_Final\c3d\bjorn.ASF
:FULLY-SPECIFIED
:DEGREES
81
root 0.104733 19.3092 2.26449 -172.814 1.47222 181.036
lowerback -21.5864 -0.372394 -0.910191
upperback 8.89196 -0.193553 1.03039
thorax 22.6054 -0.234603 1.67648
lowerneck 27.8614 -15.4358 -2.02307
upperneck 8.39027 -18.3238 8.04088
head -0.487751 -8.6861 4.13383
rclavicle 1.63997e-015 -8.64713e-015
rhumerus -1307.84 -140.29 1298.91
rradius 23.3966
rwrist -9.22874
rhand -26.6406 -8.25084
rfingers 7.12502
rthumb -0.0730156 -38.2306
lclavicle 1.63997e-015 -8.64713e-015
lhumerus -762.34 34.7521 -742.505
lradius 31.654
lwrist -5.64587
lhand -26.2923 16.1415
lfingers 7.12502
lthumb 0.263435 46.121
rfemur -14.7943 -11.4412 13.9562
rtibia 28.8023
rfoot -11.6953 17.9432
rtoes -12.4619
lfemur -10.8429 6.75854 -15.2611
ltibia 24.559
lfoot -13.5865 -11.0428
ltoes 2.67611
82
root 0.0981744 19.3094 2.2709 -172.873 1.46287 181.04
lowerback -21.4758 -0.414463 -0.846016
upperback 9.09527 -0.260749 1.098
thorax 22.818 -0.253542 1.69901
lowerneck 28.0996 -15.3461 -2.28886
upperneck 8.12361 -18.2936 8.18131
head -0.56804 -8.70642 4.23441
rclavicle -2.33572e-015 -1.99779e-014
rhumerus -1310.81 -141.06 1297.03
rradius 24.5401
rwrist -12.5088
rhand -26.2868 -8.30403
rfingers 7.12502
rthumb 0.268761 -38.2836
lclavicle -2.33572e-015 -1.99779e-014
lhumerus -764.753 34.1236 -739.802
lradius 31.7528
lwrist -5.26736
lhand -26.3314 15.8995
lfingers 7.12502
lthumb 0.225679 45.8792
rfemur -14.7515 -11.3977 13.9234
rtibia 28.8146
rfoot -11.6491 17.9157
rtoes -12.4401
lfemur -10.8063 6.83174 -15.2656
ltibia 24.571
lfoot -13.554 -11.1519
ltoes 2.90259
83
root 0.0914651 19.3091 2.28067 -172.935 1.43022 181.044
lowerback -21.3644 -0.467652 -0.762561
upperback 9.30051 -0.346097 1.15531
thorax 23.0342 -0.275098 1.69172
lowerneck 28.2453 -15.2329 -2.57316
upperneck 7.91753 -18.2461 8.32876
head -0.618325 -8.71652 4.32999
rclavicle -8.94531e-016 -2.98177e-015
rhumerus -1313.59 -141.796 1294.64
rradius 25.8333
rwrist -15.78
rhand -25.8817 -8.51151
rfingers 7.12502
rthumb 0.659975 -38.4902
lclavicle -8.94531e-016 -2.98177e-015
lhumerus -767.055 33.8642 -737.068
lradius 31.6718
lwrist -5.1194
lhand -26.4754 15.7159
lfingers 7.12502
lthumb 0.0865818 45.6956
rfemur -14.7047 -11.3468 13.9037
rtibia 28.8166
rfoot -11.7207 17.7874
rtoes -12.9055
lfemur -10.8131 6.97496 -15.2738
ltibia 24.6186
lfoot -13.5052 -11.3204
ltoes 2.93227
84
root 0.0834312 19.307 2.29395 -173.016 1.42075 181.055
lowerback -21.2093 -0.501262 -0.661107
upperback 9.49915 -0.407898 1.20847
thorax 23.213 -0.282628 1.67895
lowerneck 28.2644 -15.1393 -2.82611
upperneck 7.79464 -18.2236 8.42099
head -0.633287 -8.73186 4.3944
rclavicle -3.97569e-015 1.45113e-014
rhumerus -1315.92 -142.666 1291.42
rradius 27.1817
rwrist -19.6836
rhand -25.9865 -8.50942
rfingers 7.12502
rthumb 0.558806 -38.4884
lclavicle -3.97569e-015 1.45113e-014
lhumerus -769.058 33.7222 -734.041
lradius 31.4228
lwrist -4.83623
lhand -26.6563 14.9844
lfingers 7.12502
lthumb -0.0881428 44.9642
rfemur -14.65 -11.3249 13.8823
rtibia 28.8011
rfoot -11.756 17.7361
rtoes -13.2211
lfemur -10.8117 7.02186 -15.285
ltibia 24.7027
lfoot -13.5185 -11.3769
ltoes 2.96104
85
root 0.074456 19.3032 2.31035 -173.112 1.40486 181.087
lowerback -21.0428 -0.520674 -0.48835
upperback 9.70605 -0.462925 1.22602
thorax 23.3943 -0.27097 1.58707
lowerneck 28.2246 -15.07 -2.96481
upperneck 7.6811 -18.2037 8.45294
head -0.652202 -8.7418 4.42229
rclavicle 9.93923e-017 7.35503e-015
rhumerus -1318.04 -143.257 1287.81
rradius 28.4099
rwrist -22.1896
rhand -26.1506 -8.85918
rfingers 7.12502
rthumb 0.400271 -38.8385
lclavicle 9.93923e-017 7.35503e-015
lhumerus -770.688 33.6596 -730.704
lradius 30.9113
lwrist -4.65342
lhand -26.9117 13.2188
lfingers 7.12502
lthumb -0.334808 43.1982
rfemur -14.5887 -11.4026 13.8922
rtibia 28.7739
rfoot -11.7422 17.7281
rtoes -13.4542
lfemur -10.832 7.04391 -15.2751
ltibia 24.8277
lfoot -13.5375 -11.4091
ltoes 2.92644
86
root 0.0649765 19.2987 2.32977 -173.227 1.39967 181.074
lowerback -20.861 -0.550977 -0.357965
upperback 9.93078 -0.515564 1.24484
thorax 23.5916 -0.263212 1.52296
lowerneck 27.9225 -14.9992 -3.14404
upperneck 7.74909 -18.2115 8.42479
head -0.583824 -8.7579 4.41312
rclavicle 2.78299e-015 8.94531e-015
rhumerus -1319.96 -143.313 1284.33
rradius 29.2206
rwrist -23.7121
rhand -26.2783 -8.78616
rfingers 7.12502
rthumb 0.276922 -38.7657
lclavicle 2.78299e-015 8.94531e-015
lhumerus -771.777 33.2956 -726.628
lradius 30.4462
lwrist -3.89215
lhand -27.36 12.1938
lfingers 7.12502
lthumb -0.767752 42.1721
rfemur -14.5105 -11.4078 13.8486
rtibia 28.7394
rfoot -11.7982 17.6479
rtoes -13.8378
lfemur -10.853 7.02345 -15.3124
ltibia 24.983
lfoot -13.557 -11.4336
ltoes 3.14445
87
root 0.055428 19.2929 2.35227 -173.358 1.38301 181.064
lowerback -20.66 -0.587507 -0.231614
upperback 10.1719 -0.572809 1.27414
thorax 23.8005 -0.257042 1.47283
lowerneck 27.5064 -14.9209 -3.25461
upperneck 7.79253 -18.2024 8.33479
head -0.521236 -8.76338 4.36927
rclavicle -6.65929e-015 -1.49089e-014
rhumerus -1321.7 -142.836 1281.16
rradius 29.5554
rwrist -23.951
rhand -25.924 -8.40177
rfingers 7.12502
rthumb 0.619114 -38.3806
lclavicle -6.65929e-015 -1.49089e-014
lhumerus -772.512 33.1082 -722.339
lradius 29.8443
lwrist -3.40405
lhand -27.8921 11.833
lfingers 7.12502
lthumb -1.28168 41.8089
rfemur -14.4117 -11.4593 13.8106
rtibia 28.698
rfoot -11.9232 17.6065
rtoes -14.3151
lfemur -10.8769 6.9532 -15.3515
ltibia 25.1671
lfoot -13.6211 -11.3829
ltoes 3.05521
